<?xml version="1.0" encoding="UTF-8"?>
<svg data-bbox="4.8 68.46 388.464 269.495" viewBox="0 0 400 400" height="400" width="400" xmlns="http://www.w3.org/2000/svg" data-type="color">
    <g>
        <path fillRule="evenodd" fill="#74d3fb" d="M210.3 68.696c1.375.078 3.625.078 5 0s.25-.142-2.5-.142-3.875.064-2.5.142m18.992 83.404c-.755.932-46.492 92.694-46.492 93.279 0 .584 2.362 2.621 3.039 2.621.2 0 .873.54 1.496 1.2.623.66 1.377 1.2 1.676 1.2.299 0 .779.315 1.066.7.288.385.989.94 1.559 1.233.57.294 1.65 1.058 2.4 1.699.75.642 1.555 1.167 1.788 1.167.233.001.953.51 1.6 1.132.647.622 1.806 1.477 2.576 1.9.77.423 1.544.994 1.72 1.269.176.275.896.797 1.6 1.16.704.362 1.515.992 1.803 1.4.287.407.758.74 1.045.74.288 0 .952.427 1.477.949.525.522 1.585 1.291 2.355 1.709.77.417 1.921 1.25 2.558 1.85.638.601 1.396 1.092 1.686 1.092.29 0 .721.36.956.8.235.44.666.8.956.8.29 0 .975.405 1.522.9 1.483 1.343 3.437 2.7 3.886 2.7.218 0 .54.251.716.559.176.307.995.955 1.82 1.439.825.485 1.5 1.043 1.5 1.242 0 .198.187.36.416.36.469 0 2.445 1.345 3.965 2.7.556.495 1.193.903 1.415.907.222.004.79.409 1.261.9.471.491 1.542 1.253 2.38 1.693.837.44 1.892 1.126 2.343 1.524 2.503 2.209 3.646 3.076 4.055 3.076.251 0 .885.429 1.41.954.525.525 1.72 1.353 2.655 1.841.935.487 1.7 1.033 1.7 1.213 0 .18.675.737 1.5 1.237.825.501 1.644 1.146 1.82 1.433.176.287.504.522.73.522.226 0 1.463.81 2.75 1.8s2.533 1.8 2.77 1.8c.236 0 .43.172.43.383 0 .211.81.858 1.8 1.438s1.8 1.218 1.8 1.417c0 .199.187.362.416.362.469 0 2.445 1.345 3.965 2.7.556.495 1.229.9 1.495.9s.628.244.804.542c.176.298 1.085 1.02 2.02 1.605s1.7 1.197 1.7 1.36c0 .164.495.519 1.1.79.605.271 1.73 1.034 2.5 1.697.77.662 1.615 1.205 1.877 1.205.263.001.713.324 1 .718.288.395 1.085 1.07 1.772 1.5 2.239 1.403 5.946 3.974 6.175 4.282.123.166 3.003.704 6.4 1.194 3.397.491 6.266.997 6.376 1.125.2.234 3.282.715 10.4 1.624 2.09.266 3.89.607 4 .757.11.149 3.98.788 8.6 1.42 4.62.632 8.49 1.261 8.6 1.399.11.137 3.26.652 7 1.144 3.74.492 7.102 1.055 7.471 1.251.368.197 3.698.753 7.4 1.237 3.701.483 6.819 1.012 6.929 1.174.11.162 3.26.691 7 1.176s6.89 1.009 7 1.164c.179.253 9.296 1.616 15.3 2.289 1.265.141 2.3.412 2.3.602s.644.345 1.432.345h1.432l-.286-4.1c-.158-2.255-.413-4.19-.567-4.3-.261-.185-1.245-9.269-1.865-17.2-.146-1.87-.396-3.49-.555-3.6-.158-.11-.695-4.7-1.191-10.2-.496-5.5-1.035-10.09-1.196-10.2-.162-.11-.423-1.91-.579-4-.157-2.09-.631-7.13-1.054-11.2-.424-4.07-.77-8.075-.771-8.9 0-.825-.142-1.5-.315-1.5-.173 0-.633-3.465-1.021-7.7-1.129-12.313-.872-11.237-2.902-12.129-.965-.424-1.756-.901-1.758-1.059-.002-.159-1.019-.769-2.259-1.355-1.24-.587-2.59-1.402-3-1.812-.41-.41-.981-.745-1.27-.745-.288 0-.873-.317-1.3-.704-.426-.387-1.63-1.152-2.675-1.699-1.045-.548-1.9-1.1-1.9-1.228 0-.128-.9-.654-2-1.169s-2-1.055-2-1.199c0-.144-1.08-.788-2.399-1.431-1.32-.644-2.4-1.289-2.4-1.434-.001-.146-.856-.677-1.901-1.182-1.045-.504-2.249-1.24-2.675-1.636-.427-.395-1.012-.718-1.3-.718-.289 0-.845-.315-1.237-.7-.391-.385-1.561-1.117-2.599-1.628-1.038-.51-2.112-1.14-2.388-1.4-.276-.259-1.311-.909-2.301-1.442-.99-.534-1.89-1.095-2-1.246-.11-.152-.95-.657-1.867-1.122-.917-.464-2.473-1.389-3.458-2.053-.985-.665-1.99-1.209-2.233-1.209-.243 0-.442-.151-.442-.335 0-.184-1.035-.854-2.3-1.49-1.265-.635-2.649-1.474-3.075-1.865-.427-.39-1.012-.71-1.3-.71-.289 0-.854-.329-1.256-.731-.402-.402-1.572-1.138-2.6-1.636-1.028-.497-1.869-1.031-1.869-1.185 0-.155-1.08-.777-2.4-1.383-1.32-.606-2.4-1.243-2.4-1.415 0-.172-.9-.735-2-1.25s-2-1.055-2-1.2c0-.145-.9-.685-2-1.2-1.1-.515-2-1.065-2-1.223 0-.157-.642-.59-1.426-.963-.784-.372-2.206-1.202-3.158-1.845-.953-.643-1.931-1.169-2.174-1.169-.243 0-.762-.315-1.154-.7-.391-.385-1.561-1.118-2.6-1.628-1.038-.51-1.888-1.061-1.888-1.224 0-.162-.988-.735-2.196-1.272-1.208-.537-2.198-1.108-2.2-1.269-.002-.162-.949-.77-2.104-1.353-1.155-.582-2.19-1.191-2.3-1.353-.11-.161-1.01-.702-2-1.201-.99-.499-1.89-1.039-2-1.2-.11-.161-.965-.68-1.9-1.154-.935-.474-1.702-.994-1.704-1.154-.002-.161-.992-.731-2.2-1.268-1.208-.537-2.196-1.109-2.196-1.271 0-.162-.99-.763-2.2-1.336-1.21-.572-2.2-1.177-2.2-1.344 0-.168-.99-.74-2.2-1.273-1.21-.533-2.2-1.107-2.2-1.276 0-.169-.765-.696-1.7-1.17-.935-.474-1.79-.994-1.9-1.155-.11-.162-1.19-.791-2.4-1.399s-2.29-1.237-2.4-1.399c-.11-.161-.965-.681-1.9-1.155-.935-.474-1.702-.994-1.704-1.154-.002-.161-.992-.731-2.2-1.268-1.208-.537-2.196-1.114-2.196-1.281 0-.167-.9-.716-2-1.221-1.1-.504-2-1.048-2-1.208 0-.16-1.034-.78-2.297-1.377-1.264-.598-2.648-1.413-3.076-1.812-.428-.399-.98-.725-1.227-.725-.247 0-.818-.343-1.268-.763-.451-.42-1.61-1.164-2.576-1.654s-1.846-1.022-1.956-1.183c-.717-1.049-3.802-2.123-4.308-1.5M108.6 337.2c-.156.253.863.4 2.776.4 1.749 0 3.024-.169 3.024-.4 0-.228-1.192-.4-2.776-.4-1.527 0-2.888.18-3.024.4m-58.1.694a29.38 29.38 0 0 0 3.8 0c1.045-.082.19-.15-1.9-.15s-2.945.068-1.9.15" data-color="1"/>
        <path fillRule="evenodd" fill="#045493" d="M195.8 69.247c-5.06.137-18.217.272-29.237.3l-20.037.053-.949 1.9c-.522 1.045-2.411 4.6-4.198 7.9-1.787 3.3-3.515 6.54-3.84 7.2-3.034 6.157-7.086 13.453-7.718 13.894-.231.162-.289.297-.127.3.272.006-2.783 6.361-3.273 6.807-.121.111-1.115 1.956-2.207 4.1-1.092 2.145-2.157 3.899-2.366 3.899-.21 0-.28.101-.157.224.123.124-.357 1.339-1.068 2.7-4.646 8.896-6.36 12.125-6.626 12.476-.166.22-1.254 2.29-2.416 4.6-1.163 2.31-2.22 4.29-2.348 4.4-.128.11-1.109 1.955-2.18 4.1-1.07 2.145-2.105 3.9-2.3 3.9-.194 0-.309.135-.254.3.084.256-2.213 5.073-3.29 6.9-.87 1.474-8.409 15.663-8.409 15.826 0 .1-1.89 3.676-4.2 7.946-2.31 4.27-4.2 7.959-4.2 8.196 0 .238-.18.432-.4.432-.22 0-.4.211-.4.468 0 .744-8.075 15.532-8.481 15.532-.201 0-.256.178-.122.396.135.217-1.564 3.721-3.776 7.785-2.212 4.064-4.021 7.475-4.021 7.579 0 .104-1.686 3.305-3.748 7.114a948.512 948.512 0 0 0-6.443 12.126c-1.483 2.86-2.902 5.332-3.153 5.494-.251.162-.306.297-.123.3.183.003-.024.591-.459 1.306-.435.715-2.003 3.64-3.485 6.5-3.581 6.909-7.416 13.952-7.733 14.2-.141.11-.31.47-.375.8-.134.673-2.881 6.089-3.246 6.4-.129.11-.922 1.55-1.762 3.2-5.718 11.238-7.704 14.803-8.259 14.832-.439.022-.466.09-.094.24.42.168.412.373-.044 1.068-.31.473-2.056 3.74-3.881 7.26-1.824 3.52-3.425 6.49-3.556 6.6-.132.11-.922 1.55-1.757 3.2-2.938 5.803-8.378 16.204-8.684 16.6-.649.841-5.598 10.59-5.598 11.027 0 .337 1.246.377 4.7.148 2.585-.171 15.68-.321 29.1-.333 13.42-.012 24.49-.141 24.6-.285.11-.145 16.58-.392 36.6-.55 20.02-.157 36.511-.354 36.647-.437.135-.083 1.475-2.631 2.977-5.661 1.502-3.03 2.892-5.619 3.088-5.754.196-.134.324-.314.285-.4-.154-.336.953-2.355 1.291-2.355.197 0 .248-.18.112-.4-.359-.581 1.893-4.398 2.6-4.406.477-.005.492-.075.071-.342-.408-.258.105-1.561 2.242-5.694 1.523-2.947 7.424-14.628 13.113-25.958 5.688-11.33 10.485-20.66 10.658-20.733.174-.074.316-.316.316-.539 0-.751 3.28-7.128 3.666-7.128.209 0 .274-.174.143-.386-.243-.392 2.539-6.099 3.093-6.347.167-.074.201-.3.077-.501-.124-.201-.072-.366.117-.366s.571-.63.85-1.4c.278-.77.668-1.4.867-1.4.199 0 .266-.25.149-.555-.235-.611 46.255-93.853 47.355-94.977.376-.384 3.563-6.451 7.083-13.483 3.52-7.032 6.49-12.875 6.6-12.985.11-.11 2.259-4.34 4.777-9.4 2.517-5.06 4.767-9.332 5-9.494.232-.162.289-.297.126-.3-.163-.003 3.752-8.048 8.7-17.878 4.948-9.83 8.997-17.975 8.997-18.1 0-.308-63.445-.291-75 .019" data-color="2"/>
        <path fillRule="evenodd" fill="#4383b0" d="M249.525 68.699c3.368.067 8.768.067 12 0 3.231-.067.475-.122-6.125-.122s-9.244.055-5.875.122m-99.425.399c-2.255.072-4.1.287-4.1.479 0 .191.317.265.704.164.387-.101 6.732-.326 14.1-.499 13.271-.311 13.303-.314 3.396-.294-5.5.011-11.845.079-14.1.15m62.378 0c2.353.071 6.313.071 8.8.001 2.487-.07.562-.128-4.278-.129-4.84 0-6.875.058-4.522.128M269.8 71.6c-.15.473-.183.95-.073 1.06.11.11.323-.187.473-.66.15-.473.183-.95.073-1.06-.11-.11-.323.187-.473.66m-2.526 4.998c-.251.551-.293 1.002-.092 1.002.393 0 1.002-1.549.719-1.832-.094-.094-.376.279-.627.83M141.7 77.7c-.43 1.175-.42 1.226.112.524.509-.672.809-1.824.476-1.824-.062 0-.327.585-.588 1.3M265 81.2c-.341.66-.475 1.2-.298 1.2s.526-.54.776-1.2c.249-.66.383-1.2.298-1.2-.086 0-.435.54-.776 1.2m-2.4 4.8c-.341.66-.475 1.2-.298 1.2s.526-.54.776-1.2c.249-.66.383-1.2.298-1.2-.086 0-.435.54-.776 1.2M129.843 99.433c-.33.86-.31.967.181.967.233 0 .312-.18.176-.4-.136-.22-.057-.4.176-.4.233 0 .424-.18.424-.4 0-.633-.689-.465-.957.233M124.2 110.8c-.341.66-.531 1.2-.421 1.2.11 0 .48-.54.821-1.2.341-.66.531-1.2.421-1.2-.11 0-.48.54-.821 1.2m124.443 3.033c-.376.978-.294 1.075.357.424.68-.68.767-1.057.243-1.057-.197 0-.467.285-.6.633m-2.401 4.802c-.322.839-.307.965.115.965.5 0 .881-1.129.467-1.385-.187-.116-.449.073-.582.42m-2.399 4.798c-.15.39-.061.573.232.475.598-.199.927-1.108.401-1.108-.215 0-.5.285-.633.633m-131.804 9.827c-.539 1.545-.542 1.651-.039 1.34.22-.136.4-.597.4-1.024 0-.427.18-.776.4-.776.22 0 .4-.18.4-.4 0-.879-.748-.325-1.161.86m124.835 3.738c-.251.551-.293 1.002-.092 1.002.393 0 1.002-1.549.719-1.832-.094-.094-.376.279-.627.83m-127.17.583c-.36.577-.369.855-.034 1.062.278.172.343.102.168-.181-.157-.254-.114-.462.096-.462.209 0 .484-.27.611-.6.332-.867-.267-.738-.841.181m124.77 4.217c-.251.551-.293 1.002-.092 1.002.393 0 1.002-1.549.719-1.832-.094-.094-.376.279-.627.83M107 143.2c-.341.66-.531 1.2-.421 1.2.11 0 .48-.54.821-1.2.341-.66.531-1.2.421-1.2-.11 0-.48.54-.821 1.2m-2.428 4.187c-.356.543-.585 1.149-.51 1.347.076.198.43-.246.787-.987.765-1.585.635-1.753-.277-.36m-2.382 4.643c-.385 1.215.004 1.34.536.172.251-.551.293-1.002.092-1.002-.2 0-.483.374-.628.83m-1.948 3.005c-.322.839-.307.965.115.965.5 0 .881-1.129.467-1.385-.187-.116-.449.073-.582.42m-3.687 7.577c-.365.557-.591 1.086-.502 1.175.089.089.465-.367.836-1.013.825-1.438.58-1.557-.334-.162m-3.893 7.319c-.726.803-.846 1.269-.326 1.269.184 0 .541-.45.791-1 .542-1.189.428-1.255-.465-.269M77 199.6c-.15.473-.183.95-.073 1.06.11.11.323-.187.473-.66.15-.473.183-.95.073-1.06-.11-.11-.323.187-.473.66m-1.727 2.887c-.56.56-.618 1.113-.116 1.113.367 0 .97-1.206.726-1.451-.075-.074-.349.077-.61.338m-17.6 33.2c-.56.56-.618 1.113-.116 1.113.367 0 .97-1.206.726-1.451-.075-.074-.349.077-.61.338m-1.151 2.713c-.249.66-.383 1.2-.298 1.2.086 0 .435-.54.776-1.2.341-.66.475-1.2.298-1.2s-.526.54-.776 1.2m-6.826 12.395c-.606.971-.62 1.205-.072 1.205.233 0 .312-.18.176-.4-.136-.22-.076-.4.134-.4.209 0 .484-.27.611-.6.335-.873-.268-.735-.849.195m129.634.668c.145.145.063.505-.182.8-.328.395-.327.537.003.537.247 0 .449-.075.449-.167 0-.092.109-.452.243-.8.143-.373.033-.633-.267-.633-.28 0-.391.118-.246.263m-2.8 5.6c.145.145.063.505-.182.8-.328.395-.327.537.003.537.247 0 .449-.075.449-.167 0-.092.109-.452.243-.8.143-.373.033-.633-.267-.633-.28 0-.391.118-.246.263m-2.351 4.903c.124.201 0 .446-.277.545-.276.099-.357.334-.18.523.177.188.489.078.694-.246.492-.779.479-1.188-.04-1.188-.233 0-.321.165-.197.366m-132.565 4.008c-.659 1.231-.482 1.427.386.426.905-1.044.959-1.2.414-1.2-.212 0-.572.348-.8.774M36.1 276.9c-.43 1.175-.42 1.226.112.524.509-.672.809-1.824.476-1.824-.062 0-.327.585-.588 1.3m-4.007 6.7c-.417.667-.4.8.104.8.331 0 .603-.075.603-.167 0-.092.109-.452.243-.8.348-.906-.357-.782-.95.167m-.63 2.083c-.325 1.242-.078 1.306.463.119.251-.551.302-1.002.112-1.002s-.449.397-.575.883m-7.22 12.95c-.33.86-.31.967.181.967.233 0 .312-.18.176-.4-.136-.22-.057-.4.176-.4.233 0 .424-.18.424-.4 0-.633-.689-.465-.957.233m-7.776 14.842c-.647 1.209-.583 1.499.165.75.348-.348.558-.855.467-1.128-.102-.305-.344-.16-.632.378m130.721 1.747c-.242.452-.381 1-.308 1.217.072.218.338-.152.591-.822.526-1.392.368-1.612-.283-.395m-3.409 7.144c.124.201 0 .446-.277.545-.276.099-.357.334-.18.523.177.188.489.078.694-.246.492-.779.479-1.188-.04-1.188-.233 0-.321.165-.197.366M10.9 324.5c-.43 1.175-.42 1.226.112.524.509-.672.809-1.824.476-1.824-.062 0-.327.585-.588 1.3m130.479 2.666c.124.201 0 .446-.277.545-.276.099-.357.334-.18.523.177.188.489.078.694-.246.492-.779.479-1.188-.04-1.188-.233 0-.321.165-.197.366M6.263 333.283c-.325 1.242-.078 1.306.463.119.251-.551.302-1.002.112-1.002s-.449.397-.575.883m131.98-.25c-.15.39-.061.573.232.475.598-.199.927-1.108.401-1.108-.215 0-.5.285-.633.633M75.8 337.2c-.483.207 2.481.355 7.476.372 5.118.017 8.371-.125 8.524-.372.309-.5-14.836-.5-16 0m-52 .4c-1.569.399 9.199.413 12.4.015 1.732-.214.506-.301-4.4-.309-3.74-.006-7.34.126-8 .294" data-color="3"/>
        <path fillRule="evenodd" fill="#3e99cd" d="M224.125 68.699c3.699.067 9.639.066 13.2 0s.535-.12-6.725-.12-10.174.054-6.475.12m-75.812.396c1.163.081 2.963.081 4-.002 1.038-.082.087-.148-2.113-.147-2.2.001-3.049.068-1.887.149m120.72 4.362c-.334.873.11 1.279.583.531.473-.748.483-1.188.027-1.188-.197 0-.471.296-.61.657m-2.054 4.509c.124.201 0 .446-.277.545-.276.099-.357.334-.18.523.177.188.489.078.694-.246.492-.779.479-1.188-.04-1.188-.233 0-.321.165-.197.366m-126.712 1.501c-.383.382-.329.933.09.933.197 0 .461-.27.588-.6.234-.61-.192-.819-.678-.333m123.576 4.366c-.376.978-.294 1.108.357.567.665-.552.796-1.2.243-1.2-.197 0-.467.285-.6.633M136.4 87.2c-.47.66-.707 1.199-.527 1.197.18-.001.634-.541 1.008-1.2.877-1.54.617-1.539-.481.003m125.043 1.433c-.322.839-.308.967.11.967.195 0 .448-.36.563-.8.247-.945-.321-1.086-.673-.167m-132.872 13.273c-.559.383-1.041 1.694-.623 1.694.178 0 .529-.45.779-1 .495-1.087.485-1.133-.156-.694m-5.928 10.727c-.33.86-.31.967.181.967.233 0 .312-.18.176-.4-.136-.22-.057-.4.176-.4.233 0 .424-.18.424-.4 0-.633-.689-.465-.957.233m-7.343 14.39c-.589.64-.638.977-.143.977.341 0 .98-1.204.752-1.417-.06-.056-.334.142-.609.44m121.23 11.24c.145.145.063.505-.182.8-.328.395-.327.537.003.537.247 0 .449-.075.449-.167 0-.092.109-.452.243-.8.143-.373.033-.633-.267-.633-.28 0-.391.118-.246.263m-5.487 10.77c-.376.978-.294 1.075.357.424.68-.68.767-1.057.243-1.057-.197 0-.467.285-.6.633m-128.36 1.371c-.114.438-.064.796.112.796.47 0 .827-1.139.433-1.383-.185-.114-.431.15-.545.587M229.6 151.47l-1 1.022 1.1-.692c.605-.381 1.1-.851 1.1-1.046 0-.484-.06-.449-1.2.716m-132.157 8.763c-.33.86-.31.967.181.967.233 0 .312-.18.176-.4-.136-.22-.057-.4.176-.4.233 0 .424-.18.424-.4 0-.633-.689-.465-.957.233m-8 15.2c-.376.978-.294 1.075.357.424.68-.68.767-1.057.243-1.057-.197 0-.467.285-.6.633m117.538 20.204c-.352.681-.569 1.308-.482 1.395.087.087.457-.47.823-1.237.822-1.725.537-1.857-.341-.158m-129.514 2.23c-.383.382-.329.933.09.933.197 0 .461-.27.588-.6.234-.61-.192-.819-.678-.333m127.114 2.57c-.352.681-.569 1.308-.482 1.395.087.087.457-.47.823-1.237.822-1.725.537-1.857-.341-.158m-2.601 5.202c-.46.901-.767 1.707-.683 1.791.084.084.544-.654 1.022-1.639 1.09-2.244.796-2.376-.339-.152m-2.4 4.8c-.46.901-.767 1.707-.683 1.791.084.084.544-.654 1.022-1.639 1.09-2.244.796-2.376-.339-.152m-2.8 5.6c-.46.901-.767 1.707-.683 1.791.084.084.544-.654 1.022-1.639 1.09-2.244.796-2.376-.339-.152m-7.779 15.559c-3.63 7.258-6.586 13.513-6.567 13.9.023.459.142.355.344-.298.17-.55 3.215-6.805 6.767-13.9 3.551-7.095 6.367-12.9 6.257-12.9-.11 0-3.17 5.939-6.801 13.198M52.267 245.467c-.383.382-.329.933.09.933.197 0 .461-.27.588-.6.234-.61-.192-.819-.678-.333m-17.624 33.166c-.33.86-.31.967.181.967.233 0 .312-.18.176-.4-.136-.22-.057-.4.176-.4.233 0 .424-.18.424-.4 0-.633-.689-.465-.957.233m-7.747 14.962c-.606.971-.62 1.205-.072 1.205.233 0 .312-.18.176-.4-.136-.22-.076-.4.134-.4.209 0 .484-.27.611-.6.335-.873-.268-.735-.849.195m129.683 3.571c.124.201 0 .446-.277.545-.276.099-.357.334-.18.523.177.188.489.078.694-.246.492-.779.479-1.188-.04-1.188-.233 0-.321.165-.197.366M154.2 302c.136.22.057.4-.176.4-.233 0-.424.202-.424.449 0 .31.185.295.6-.049.697-.578.788-1.2.176-1.2-.233 0-.312.18-.176.4m-2.519 4.583c.154.172.019.574-.3.893-.623.623-.772 1.326-.281 1.321.596-.006 1.26-1.976.762-2.261-.254-.145-.336-.124-.181.047m-132.463 1.783c-.245.459-.279.834-.075.834.411 0 .979-1.212.699-1.492-.098-.097-.378.199-.624.658m129.415 4.291c-.381.993.039 1.129.549.177.245-.459.279-.834.075-.834-.204 0-.485.296-.624.657M9.443 326.233c-.33.86-.31.967.181.967.233 0 .312-.18.176-.4-.136-.22-.057-.4.176-.4.233 0 .424-.18.424-.4 0-.633-.689-.465-.957.233M91.8 337.2c-.162.262 2.655.4 8.153.4 5.168 0 8.495-.154 8.647-.4.162-.262-2.655-.4-8.153-.4-5.168 0-8.495.154-8.647.4m-55.4.4c-3.015.369 10.175.385 15.6.018 3.417-.231 2.559-.284-4.6-.286-4.84-.001-9.79.12-11 .268" data-color="4"/>
        <path fillRule="evenodd" fill="#2874a5" d="M268.902 68.694c1.825.144 1.894.194 1.691 1.228-.203 1.037-.196 1.042.199.141.59-1.35.202-1.672-1.916-1.591l-1.876.072 1.902.15M164.4 69.2c-8.743.198-8.075.225 6.2.258 8.8.02 20.14-.086 25.2-.237 8.377-.249 7.822-.272-6.2-.258-8.47.009-19.81.115-25.2.237m70.9-.1c5.445.063 14.355.063 19.8 0s.99-.115-9.9-.115-15.345.052-9.9.115m33.088 4.922c-.242.452-.381 1-.308 1.217.072.218.338-.152.591-.822.526-1.392.368-1.612-.283-.395M265.8 79.2c-.341.66-.531 1.2-.421 1.2.11 0 .48-.54.821-1.2.341-.66.531-1.2.421-1.2-.11 0-.48.54-.821 1.2M134.122 92.4c-.249.66-.383 1.2-.298 1.2.086 0 .435-.54.776-1.2.341-.66.475-1.2.298-1.2s-.526.54-.776 1.2m-2.568 4.9c-.26.495-.672 1.032-.914 1.194-.307.205-.292.296.05.3.269.003.769-.534 1.11-1.194.341-.66.532-1.2.424-1.2-.108 0-.409.405-.67.9m-4.891 9.183c-.325 1.242-.078 1.306.463.119.251-.551.302-1.002.112-1.002s-.449.397-.575.883m125.411.115c-.251.551-.302 1.002-.112 1.002.332 0 .93-1.641.687-1.884-.065-.066-.324.331-.575.882M250 110.8c-.449.88-.678 1.598-.508 1.596.169-.002.61-.722.978-1.6.866-2.06.582-2.058-.47.004m-2.522 5.005c-.366.767-.527 1.395-.359 1.395.313 0 1.365-2.449 1.146-2.669-.067-.066-.421.507-.787 1.274M116.99 124.43c-.385 1.215.004 1.34.536.172.251-.551.293-1.002.092-1.002-.2 0-.483.374-.628.83m123.398 5.192c-.242.452-.37 1.033-.284 1.289.085.257.358-.113.605-.822.508-1.457.34-1.701-.321-.467m-2.4 4.8c-.242.452-.381 1-.308 1.217.072.218.338-.152.591-.822.526-1.392.368-1.612-.283-.395M235.4 139.6c-.341.66-.475 1.2-.298 1.2s.526-.54.776-1.2c.249-.66.383-1.2.298-1.2-.086 0-.435.54-.776 1.2m-2.409 4.9c-.53 1.093-.533 1.173-.024.5a33.99 33.99 0 0 1 1.035-1.3c.277-.322.285-.5.024-.5-.223 0-.689.585-1.035 1.3m-126.637.4c-.26.495-.672 1.032-.914 1.194-.307.205-.292.296.05.3.269.003.769-.534 1.11-1.194.341-.66.532-1.2.424-1.2-.108 0-.409.405-.67.9m124.237 4.4c-.53 1.093-.533 1.173-.024.5a33.99 33.99 0 0 1 1.035-1.3c.277-.322.285-.5.024-.5-.223 0-.689.585-1.035 1.3m-129.158 4.557c-.381.993.039 1.129.549.177.245-.459.279-.834.075-.834-.204 0-.485.296-.624.657M96.6 163.2c-.341.66-.531 1.2-.421 1.2.11 0 .48-.54.821-1.2.341-.66.531-1.2.421-1.2-.11 0-.48.54-.821 1.2m-4.81 8.83c-.385 1.215.004 1.34.536.172.251-.551.293-1.002.092-1.002-.2 0-.483.374-.628.83m-12.327 23.253c-.325 1.242-.078 1.306.463.119.251-.551.302-1.002.112-1.002s-.449.397-.575.883M71.4 210.8c-.341.66-.531 1.2-.421 1.2.11 0 .48-.54.821-1.2.341-.66.531-1.2.421-1.2-.11 0-.48.54-.821 1.2m-2.8 5.2c-.341.66-.531 1.2-.421 1.2.11 0 .48-.54.821-1.2.341-.66.531-1.2.421-1.2-.11 0-.48.54-.821 1.2m-2.155 4.1c-.397 1.189-.383 1.234.16.524.327-.428.595-1.013.595-1.3 0-.892-.303-.581-.755.776m110.936 34.737c-.352.681-.542 1.336-.422 1.456.12.12.409-.283.642-.895.233-.612.518-1.267.635-1.456.116-.188.115-.342-.002-.342s-.501.557-.853 1.237M46.2 258.4c-.341.66-.531 1.2-.421 1.2.11 0 .48-.54.821-1.2.341-.66.531-1.2.421-1.2-.11 0-.48.54-.821 1.2m128.81 1.18c-.335.649-.595 1.414-.577 1.7.018.286.306-.11.641-.88.334-.77.815-1.532 1.067-1.694.336-.215.328-.295-.031-.3-.269-.003-.764.525-1.1 1.174M43.554 263.3c-.26.495-.672 1.032-.914 1.194-.307.205-.292.296.05.3.269.003.769-.534 1.11-1.194.341-.66.532-1.2.424-1.2-.108 0-.409.405-.67.9m128.52 2.098c-.251.551-.302 1.002-.112 1.002.332 0 .93-1.641.687-1.884-.065-.066-.324.331-.575.882M169.8 270c-.341.66-.475 1.2-.298 1.2s.526-.54.776-1.2c.249-.66.383-1.2.298-1.2-.086 0-.435.54-.776 1.2m-2.409 4.9c-.53 1.093-.533 1.173-.024.5a33.99 33.99 0 0 1 1.035-1.3c.277-.322.285-.5.024-.5-.223 0-.689.585-1.035 1.3M165 279.6c-.341.66-.531 1.2-.421 1.2.11 0 .48-.54.821-1.2.341-.66.531-1.2.421-1.2-.11 0-.48.54-.821 1.2M25.954 296.5c-.26.495-.672 1.032-.914 1.194-.307.205-.292.296.05.3.269.003.769-.534 1.11-1.194.341-.66.532-1.2.424-1.2-.108 0-.409.405-.67.9m-4.891 9.183c-.325 1.242-.078 1.306.463.119.251-.551.302-1.002.112-1.002s-.449.397-.575.883m-2.709 5.217c-.26.495-.672 1.032-.914 1.194-.307.205-.292.296.05.3.269.003.769-.534 1.11-1.194.341-.66.532-1.2.424-1.2-.108 0-.409.405-.67.9m123.32 14.898c-.251.551-.293 1.002-.092 1.002.393 0 1.002-1.549.719-1.832-.094-.094-.376.279-.627.83M8.6 329.2c-.341.66-.531 1.2-.421 1.2.11 0 .48-.54.821-1.2.341-.66.531-1.2.421-1.2-.11 0-.48.54-.821 1.2m130.8 1.2c-.341.66-.475 1.2-.298 1.2s.526-.54.776-1.2c.249-.66.383-1.2.298-1.2-.086 0-.435.54-.776 1.2m-2.4 4.8-.621 1.2-10.489.093-10.49.092 10 .12c11.456.138 11.458.137 12.072-1.489.587-1.557.33-1.566-.472-.016m-33.5 1.498c2.035.073 5.365.073 7.4 0s.37-.132-3.7-.132-5.735.059-3.7.132m-40.3.502c0 .495 11.447.495 12.6 0 .491-.211-1.785-.355-5.9-.372-4.219-.018-6.7.12-6.7.372m-49.6.4c-1.298.416 8.567.416 10.2 0 .736-.187-.812-.308-4-.313-2.86-.004-5.65.137-6.2.313" data-color="5"/>
    </g>
</svg>
